<mxfile host="app.diagrams.net" modified="2022-03-20T15:28:10.844Z" agent="5.0 (Windows NT 10.0; Win64; x64) AppleWebKit/537.36 (KHTML, like Gecko) Chrome/99.0.4844.74 Safari/537.36" etag="2DO-vmBxUI6pDj89iZi9" version="17.1.3" type="github">
  <diagram id="UfmN5P3qtUB1oXWDlyG3" name="Page-1">
    <mxGraphModel dx="1422" dy="794" grid="1" gridSize="10" guides="1" tooltips="1" connect="1" arrows="1" fold="1" page="1" pageScale="1" pageWidth="827" pageHeight="1169" math="0" shadow="0">
      <root>
        <mxCell id="0" />
        <mxCell id="1" parent="0" />
        <mxCell id="PZ6_OA4X6WVNgHiFdxgJ-30" style="edgeStyle=orthogonalEdgeStyle;rounded=0;orthogonalLoop=1;jettySize=auto;html=1;exitX=0.5;exitY=0;exitDx=0;exitDy=0;entryX=0.5;entryY=1;entryDx=0;entryDy=0;" edge="1" parent="1" source="PZ6_OA4X6WVNgHiFdxgJ-1" target="PZ6_OA4X6WVNgHiFdxgJ-28">
          <mxGeometry relative="1" as="geometry" />
        </mxCell>
        <mxCell id="PZ6_OA4X6WVNgHiFdxgJ-1" value="" style="rounded=0;whiteSpace=wrap;html=1;fillColor=#ffe6cc;strokeColor=#d79b00;" vertex="1" parent="1">
          <mxGeometry x="49" y="380" width="240" height="20" as="geometry" />
        </mxCell>
        <mxCell id="PZ6_OA4X6WVNgHiFdxgJ-2" value="" style="rounded=0;whiteSpace=wrap;html=1;" vertex="1" parent="1">
          <mxGeometry x="309" y="380" width="80" height="20" as="geometry" />
        </mxCell>
        <mxCell id="PZ6_OA4X6WVNgHiFdxgJ-3" value="" style="ellipse;whiteSpace=wrap;html=1;fillColor=#ffe6cc;strokeColor=#d79b00;" vertex="1" parent="1">
          <mxGeometry x="49" y="380" width="20" height="20" as="geometry" />
        </mxCell>
        <mxCell id="PZ6_OA4X6WVNgHiFdxgJ-4" value="" style="ellipse;whiteSpace=wrap;html=1;fillColor=#ffe6cc;strokeColor=#d79b00;" vertex="1" parent="1">
          <mxGeometry x="69" y="380" width="20" height="20" as="geometry" />
        </mxCell>
        <mxCell id="PZ6_OA4X6WVNgHiFdxgJ-5" value="" style="ellipse;whiteSpace=wrap;html=1;fillColor=#ffe6cc;strokeColor=#d79b00;" vertex="1" parent="1">
          <mxGeometry x="89" y="380" width="20" height="20" as="geometry" />
        </mxCell>
        <mxCell id="PZ6_OA4X6WVNgHiFdxgJ-6" value="" style="ellipse;whiteSpace=wrap;html=1;fillColor=#ffe6cc;strokeColor=#d79b00;" vertex="1" parent="1">
          <mxGeometry x="109" y="380" width="20" height="20" as="geometry" />
        </mxCell>
        <mxCell id="PZ6_OA4X6WVNgHiFdxgJ-7" value="" style="ellipse;whiteSpace=wrap;html=1;fillColor=#ffe6cc;strokeColor=#d79b00;" vertex="1" parent="1">
          <mxGeometry x="129" y="380" width="20" height="20" as="geometry" />
        </mxCell>
        <mxCell id="PZ6_OA4X6WVNgHiFdxgJ-8" value="" style="ellipse;whiteSpace=wrap;html=1;fillColor=#ffe6cc;strokeColor=#d79b00;" vertex="1" parent="1">
          <mxGeometry x="149" y="380" width="20" height="20" as="geometry" />
        </mxCell>
        <mxCell id="PZ6_OA4X6WVNgHiFdxgJ-9" value="" style="ellipse;whiteSpace=wrap;html=1;fillColor=#ffe6cc;strokeColor=#d79b00;" vertex="1" parent="1">
          <mxGeometry x="189" y="380" width="20" height="20" as="geometry" />
        </mxCell>
        <mxCell id="PZ6_OA4X6WVNgHiFdxgJ-10" value="" style="ellipse;whiteSpace=wrap;html=1;fillColor=#ffe6cc;strokeColor=#d79b00;" vertex="1" parent="1">
          <mxGeometry x="169" y="380" width="20" height="20" as="geometry" />
        </mxCell>
        <mxCell id="PZ6_OA4X6WVNgHiFdxgJ-12" value="" style="ellipse;whiteSpace=wrap;html=1;fillColor=#ffe6cc;strokeColor=#d79b00;" vertex="1" parent="1">
          <mxGeometry x="209" y="380" width="20" height="20" as="geometry" />
        </mxCell>
        <mxCell id="PZ6_OA4X6WVNgHiFdxgJ-13" value="" style="ellipse;whiteSpace=wrap;html=1;fillColor=#ffe6cc;strokeColor=#d79b00;" vertex="1" parent="1">
          <mxGeometry x="229" y="380" width="20" height="20" as="geometry" />
        </mxCell>
        <mxCell id="PZ6_OA4X6WVNgHiFdxgJ-14" value="" style="ellipse;whiteSpace=wrap;html=1;fillColor=#ffe6cc;strokeColor=#d79b00;" vertex="1" parent="1">
          <mxGeometry x="269" y="380" width="20" height="20" as="geometry" />
        </mxCell>
        <mxCell id="PZ6_OA4X6WVNgHiFdxgJ-15" value="" style="ellipse;whiteSpace=wrap;html=1;fillColor=#ffe6cc;strokeColor=#d79b00;" vertex="1" parent="1">
          <mxGeometry x="249" y="380" width="20" height="20" as="geometry" />
        </mxCell>
        <mxCell id="PZ6_OA4X6WVNgHiFdxgJ-16" value="" style="ellipse;whiteSpace=wrap;html=1;" vertex="1" parent="1">
          <mxGeometry x="309" y="380" width="20" height="20" as="geometry" />
        </mxCell>
        <mxCell id="PZ6_OA4X6WVNgHiFdxgJ-31" style="edgeStyle=orthogonalEdgeStyle;rounded=0;orthogonalLoop=1;jettySize=auto;html=1;exitX=1;exitY=0;exitDx=0;exitDy=0;entryX=0.5;entryY=1;entryDx=0;entryDy=0;" edge="1" parent="1" source="PZ6_OA4X6WVNgHiFdxgJ-17" target="PZ6_OA4X6WVNgHiFdxgJ-28">
          <mxGeometry relative="1" as="geometry" />
        </mxCell>
        <mxCell id="PZ6_OA4X6WVNgHiFdxgJ-17" value="" style="ellipse;whiteSpace=wrap;html=1;" vertex="1" parent="1">
          <mxGeometry x="329" y="380" width="20" height="20" as="geometry" />
        </mxCell>
        <mxCell id="PZ6_OA4X6WVNgHiFdxgJ-18" value="" style="ellipse;whiteSpace=wrap;html=1;" vertex="1" parent="1">
          <mxGeometry x="369" y="380" width="20" height="20" as="geometry" />
        </mxCell>
        <mxCell id="PZ6_OA4X6WVNgHiFdxgJ-19" value="" style="ellipse;whiteSpace=wrap;html=1;" vertex="1" parent="1">
          <mxGeometry x="349" y="380" width="20" height="20" as="geometry" />
        </mxCell>
        <mxCell id="PZ6_OA4X6WVNgHiFdxgJ-22" value="" style="shape=curlyBracket;whiteSpace=wrap;html=1;rounded=1;flipH=1;rotation=90;" vertex="1" parent="1">
          <mxGeometry x="159" y="300" width="20" height="240" as="geometry" />
        </mxCell>
        <mxCell id="PZ6_OA4X6WVNgHiFdxgJ-27" value="" style="shape=curlyBracket;whiteSpace=wrap;html=1;rounded=1;flipH=1;rotation=90;" vertex="1" parent="1">
          <mxGeometry x="339.95" y="379.07" width="20" height="81.88" as="geometry" />
        </mxCell>
        <mxCell id="PZ6_OA4X6WVNgHiFdxgJ-59" style="edgeStyle=orthogonalEdgeStyle;rounded=0;orthogonalLoop=1;jettySize=auto;html=1;exitX=0.5;exitY=0;exitDx=0;exitDy=0;entryX=1;entryY=1;entryDx=0;entryDy=0;" edge="1" parent="1" source="PZ6_OA4X6WVNgHiFdxgJ-28" target="PZ6_OA4X6WVNgHiFdxgJ-52">
          <mxGeometry relative="1" as="geometry" />
        </mxCell>
        <mxCell id="PZ6_OA4X6WVNgHiFdxgJ-28" value="Generator" style="rounded=1;whiteSpace=wrap;html=1;fillColor=#d5e8d4;strokeColor=#82b366;" vertex="1" parent="1">
          <mxGeometry x="189" y="270" width="170" height="60" as="geometry" />
        </mxCell>
        <mxCell id="PZ6_OA4X6WVNgHiFdxgJ-29" value="mmWave signal" style="text;html=1;resizable=0;autosize=1;align=center;verticalAlign=middle;points=[];fillColor=none;strokeColor=none;rounded=0;" vertex="1" parent="1">
          <mxGeometry x="119" y="440.95" width="100" height="20" as="geometry" />
        </mxCell>
        <mxCell id="PZ6_OA4X6WVNgHiFdxgJ-32" value="y" style="text;html=1;resizable=0;autosize=1;align=center;verticalAlign=middle;points=[];fillColor=none;strokeColor=none;rounded=0;" vertex="1" parent="1">
          <mxGeometry x="339" y="440.95" width="20" height="20" as="geometry" />
        </mxCell>
        <mxCell id="PZ6_OA4X6WVNgHiFdxgJ-46" value="" style="rounded=0;whiteSpace=wrap;html=1;fillColor=#ffe6cc;strokeColor=#d79b00;" vertex="1" parent="1">
          <mxGeometry x="157" y="180" width="240" height="20" as="geometry" />
        </mxCell>
        <mxCell id="PZ6_OA4X6WVNgHiFdxgJ-47" value="" style="ellipse;whiteSpace=wrap;html=1;fillColor=#ffe6cc;strokeColor=#d79b00;" vertex="1" parent="1">
          <mxGeometry x="157" y="180" width="20" height="20" as="geometry" />
        </mxCell>
        <mxCell id="PZ6_OA4X6WVNgHiFdxgJ-48" value="" style="ellipse;whiteSpace=wrap;html=1;fillColor=#ffe6cc;strokeColor=#d79b00;" vertex="1" parent="1">
          <mxGeometry x="177" y="180" width="20" height="20" as="geometry" />
        </mxCell>
        <mxCell id="PZ6_OA4X6WVNgHiFdxgJ-49" value="" style="ellipse;whiteSpace=wrap;html=1;fillColor=#ffe6cc;strokeColor=#d79b00;" vertex="1" parent="1">
          <mxGeometry x="197" y="180" width="20" height="20" as="geometry" />
        </mxCell>
        <mxCell id="PZ6_OA4X6WVNgHiFdxgJ-50" value="" style="ellipse;whiteSpace=wrap;html=1;fillColor=#ffe6cc;strokeColor=#d79b00;" vertex="1" parent="1">
          <mxGeometry x="217" y="180" width="20" height="20" as="geometry" />
        </mxCell>
        <mxCell id="PZ6_OA4X6WVNgHiFdxgJ-51" value="" style="ellipse;whiteSpace=wrap;html=1;fillColor=#ffe6cc;strokeColor=#d79b00;" vertex="1" parent="1">
          <mxGeometry x="237" y="180" width="20" height="20" as="geometry" />
        </mxCell>
        <mxCell id="PZ6_OA4X6WVNgHiFdxgJ-52" value="" style="ellipse;whiteSpace=wrap;html=1;fillColor=#ffe6cc;strokeColor=#d79b00;" vertex="1" parent="1">
          <mxGeometry x="257" y="180" width="20" height="20" as="geometry" />
        </mxCell>
        <mxCell id="PZ6_OA4X6WVNgHiFdxgJ-53" value="" style="ellipse;whiteSpace=wrap;html=1;fillColor=#ffe6cc;strokeColor=#d79b00;" vertex="1" parent="1">
          <mxGeometry x="297" y="180" width="20" height="20" as="geometry" />
        </mxCell>
        <mxCell id="PZ6_OA4X6WVNgHiFdxgJ-54" value="" style="ellipse;whiteSpace=wrap;html=1;fillColor=#ffe6cc;strokeColor=#d79b00;" vertex="1" parent="1">
          <mxGeometry x="277" y="180" width="20" height="20" as="geometry" />
        </mxCell>
        <mxCell id="PZ6_OA4X6WVNgHiFdxgJ-55" value="" style="ellipse;whiteSpace=wrap;html=1;fillColor=#ffe6cc;strokeColor=#d79b00;" vertex="1" parent="1">
          <mxGeometry x="317" y="180" width="20" height="20" as="geometry" />
        </mxCell>
        <mxCell id="PZ6_OA4X6WVNgHiFdxgJ-56" value="" style="ellipse;whiteSpace=wrap;html=1;fillColor=#ffe6cc;strokeColor=#d79b00;" vertex="1" parent="1">
          <mxGeometry x="337" y="180" width="20" height="20" as="geometry" />
        </mxCell>
        <mxCell id="PZ6_OA4X6WVNgHiFdxgJ-79" style="edgeStyle=orthogonalEdgeStyle;rounded=0;orthogonalLoop=1;jettySize=auto;html=1;exitX=1;exitY=0.5;exitDx=0;exitDy=0;entryX=0;entryY=0.25;entryDx=0;entryDy=0;" edge="1" parent="1" source="PZ6_OA4X6WVNgHiFdxgJ-57" target="PZ6_OA4X6WVNgHiFdxgJ-61">
          <mxGeometry relative="1" as="geometry" />
        </mxCell>
        <mxCell id="PZ6_OA4X6WVNgHiFdxgJ-57" value="" style="ellipse;whiteSpace=wrap;html=1;fillColor=#ffe6cc;strokeColor=#d79b00;" vertex="1" parent="1">
          <mxGeometry x="377" y="180" width="20" height="20" as="geometry" />
        </mxCell>
        <mxCell id="PZ6_OA4X6WVNgHiFdxgJ-58" value="" style="ellipse;whiteSpace=wrap;html=1;fillColor=#ffe6cc;strokeColor=#d79b00;" vertex="1" parent="1">
          <mxGeometry x="357" y="180" width="22" height="20" as="geometry" />
        </mxCell>
        <mxCell id="PZ6_OA4X6WVNgHiFdxgJ-60" value="Lidar-fake" style="text;html=1;resizable=0;autosize=1;align=center;verticalAlign=middle;points=[];fillColor=none;strokeColor=none;rounded=0;" vertex="1" parent="1">
          <mxGeometry x="239" y="150" width="70" height="20" as="geometry" />
        </mxCell>
        <mxCell id="PZ6_OA4X6WVNgHiFdxgJ-78" style="edgeStyle=orthogonalEdgeStyle;rounded=0;orthogonalLoop=1;jettySize=auto;html=1;exitX=0.5;exitY=1;exitDx=0;exitDy=0;" edge="1" parent="1" source="PZ6_OA4X6WVNgHiFdxgJ-61">
          <mxGeometry relative="1" as="geometry">
            <mxPoint x="525" y="390" as="targetPoint" />
          </mxGeometry>
        </mxCell>
        <mxCell id="PZ6_OA4X6WVNgHiFdxgJ-61" value="Discriminator" style="rounded=1;whiteSpace=wrap;html=1;fillColor=#f8cecc;strokeColor=#b85450;" vertex="1" parent="1">
          <mxGeometry x="440" y="270" width="170" height="60" as="geometry" />
        </mxCell>
        <mxCell id="PZ6_OA4X6WVNgHiFdxgJ-77" style="edgeStyle=orthogonalEdgeStyle;rounded=0;orthogonalLoop=1;jettySize=auto;html=1;exitX=0.5;exitY=1;exitDx=0;exitDy=0;" edge="1" parent="1" source="PZ6_OA4X6WVNgHiFdxgJ-63">
          <mxGeometry relative="1" as="geometry">
            <mxPoint x="530" y="270" as="targetPoint" />
          </mxGeometry>
        </mxCell>
        <mxCell id="PZ6_OA4X6WVNgHiFdxgJ-63" value="" style="rounded=0;whiteSpace=wrap;html=1;fillColor=#dae8fc;strokeColor=#6c8ebf;" vertex="1" parent="1">
          <mxGeometry x="441" y="180" width="240" height="20" as="geometry" />
        </mxCell>
        <mxCell id="PZ6_OA4X6WVNgHiFdxgJ-64" value="" style="ellipse;whiteSpace=wrap;html=1;fillColor=#dae8fc;strokeColor=#6c8ebf;" vertex="1" parent="1">
          <mxGeometry x="441" y="180" width="20" height="20" as="geometry" />
        </mxCell>
        <mxCell id="PZ6_OA4X6WVNgHiFdxgJ-65" value="" style="ellipse;whiteSpace=wrap;html=1;fillColor=#dae8fc;strokeColor=#6c8ebf;" vertex="1" parent="1">
          <mxGeometry x="461" y="180" width="20" height="20" as="geometry" />
        </mxCell>
        <mxCell id="PZ6_OA4X6WVNgHiFdxgJ-66" value="" style="ellipse;whiteSpace=wrap;html=1;fillColor=#dae8fc;strokeColor=#6c8ebf;" vertex="1" parent="1">
          <mxGeometry x="481" y="180" width="20" height="20" as="geometry" />
        </mxCell>
        <mxCell id="PZ6_OA4X6WVNgHiFdxgJ-67" value="" style="ellipse;whiteSpace=wrap;html=1;fillColor=#dae8fc;strokeColor=#6c8ebf;" vertex="1" parent="1">
          <mxGeometry x="501" y="180" width="20" height="20" as="geometry" />
        </mxCell>
        <mxCell id="PZ6_OA4X6WVNgHiFdxgJ-68" value="" style="ellipse;whiteSpace=wrap;html=1;fillColor=#dae8fc;strokeColor=#6c8ebf;" vertex="1" parent="1">
          <mxGeometry x="521" y="180" width="20" height="20" as="geometry" />
        </mxCell>
        <mxCell id="PZ6_OA4X6WVNgHiFdxgJ-69" value="" style="ellipse;whiteSpace=wrap;html=1;fillColor=#dae8fc;strokeColor=#6c8ebf;" vertex="1" parent="1">
          <mxGeometry x="541" y="180" width="20" height="20" as="geometry" />
        </mxCell>
        <mxCell id="PZ6_OA4X6WVNgHiFdxgJ-70" value="" style="ellipse;whiteSpace=wrap;html=1;fillColor=#dae8fc;strokeColor=#6c8ebf;" vertex="1" parent="1">
          <mxGeometry x="581" y="180" width="20" height="20" as="geometry" />
        </mxCell>
        <mxCell id="PZ6_OA4X6WVNgHiFdxgJ-71" value="" style="ellipse;whiteSpace=wrap;html=1;fillColor=#dae8fc;strokeColor=#6c8ebf;" vertex="1" parent="1">
          <mxGeometry x="561" y="180" width="20" height="20" as="geometry" />
        </mxCell>
        <mxCell id="PZ6_OA4X6WVNgHiFdxgJ-72" value="" style="ellipse;whiteSpace=wrap;html=1;fillColor=#dae8fc;strokeColor=#6c8ebf;" vertex="1" parent="1">
          <mxGeometry x="601" y="180" width="20" height="20" as="geometry" />
        </mxCell>
        <mxCell id="PZ6_OA4X6WVNgHiFdxgJ-73" value="" style="ellipse;whiteSpace=wrap;html=1;fillColor=#dae8fc;strokeColor=#6c8ebf;" vertex="1" parent="1">
          <mxGeometry x="621" y="180" width="20" height="20" as="geometry" />
        </mxCell>
        <mxCell id="PZ6_OA4X6WVNgHiFdxgJ-74" value="" style="ellipse;whiteSpace=wrap;html=1;fillColor=#dae8fc;strokeColor=#6c8ebf;" vertex="1" parent="1">
          <mxGeometry x="660" y="180" width="21" height="20" as="geometry" />
        </mxCell>
        <mxCell id="PZ6_OA4X6WVNgHiFdxgJ-75" value="" style="ellipse;whiteSpace=wrap;html=1;fillColor=#dae8fc;strokeColor=#6c8ebf;" vertex="1" parent="1">
          <mxGeometry x="641" y="180" width="20" height="20" as="geometry" />
        </mxCell>
        <mxCell id="PZ6_OA4X6WVNgHiFdxgJ-80" value="Lidar-ground truth" style="text;html=1;resizable=0;autosize=1;align=center;verticalAlign=middle;points=[];fillColor=none;strokeColor=none;rounded=0;" vertex="1" parent="1">
          <mxGeometry x="501" y="150" width="110" height="20" as="geometry" />
        </mxCell>
        <mxCell id="PZ6_OA4X6WVNgHiFdxgJ-82" value="?" style="rounded=0;whiteSpace=wrap;html=1;fillColor=#f5f5f5;fontColor=#333333;strokeColor=#666666;" vertex="1" parent="1">
          <mxGeometry x="507.5" y="400" width="35" height="31" as="geometry" />
        </mxCell>
      </root>
    </mxGraphModel>
  </diagram>
</mxfile>
